<svg width="65" height="65" viewBox="0 0 65 65" fill="none" xmlns="http://www.w3.org/2000/svg">
<g id="&#240;&#159;&#166;&#134; icon &#34;circle facebook&#34;">
<path id="Vector" d="M32.2282 0C36.6893 0 40.8813 0.846086 44.8041 2.53826C48.7268 4.23043 52.1496 6.53793 55.0725 9.46077C57.9953 12.3836 60.3028 15.7936 61.995 19.6907C63.6872 23.5878 64.5332 27.767 64.5332 32.2282C64.5332 36.6893 63.6872 40.8813 61.995 44.8041C60.3028 48.7268 57.9953 52.1496 55.0725 55.0725C52.1496 57.9953 48.7268 60.3028 44.8041 61.995C40.8813 63.6872 36.6893 64.5332 32.2282 64.5332C27.767 64.5332 23.5878 63.6872 19.6907 61.995C15.7936 60.3028 12.3836 57.9953 9.46077 55.0725C6.53793 52.1496 4.23043 48.7268 2.53826 44.8041C0.846086 40.8813 0 36.6893 0 32.2282C0 27.767 0.846086 23.5878 2.53826 19.6907C4.23043 15.7936 6.53793 12.3836 9.46077 9.46077C12.3836 6.53793 15.7936 4.23043 19.6907 2.53826C23.5878 0.846086 27.767 0 32.2282 0ZM44.381 14.0758H37.5354C36.2022 14.0758 34.9715 14.3065 33.8434 14.768C32.7153 15.2295 31.7282 15.8449 30.8821 16.614C30.036 17.3832 29.3822 18.2549 28.9207 19.2292C28.4592 20.2035 28.2285 21.1778 28.2285 22.1521V26.2287H22.1521V34.228H28.2285V50.3805H36.3048V34.228H42.3043V26.2287H36.3048V24.1519C36.3048 23.5366 36.5483 23.0494 37.0355 22.6905C37.5226 22.3315 37.9457 22.1521 38.3046 22.1521H44.381V14.0758Z" fill="white"/>
</g>
</svg>
