<svg width="1440" height="874" viewBox="0 0 1440 874" fill="none" xmlns="http://www.w3.org/2000/svg">
<g clip-path="url(#clip0_14_36)">
<rect width="1440" height="874" fill="#141414"/>
<path d="M-112.639 690.613C292.988 593.022 471.915 654.097 484.393 860.216C496.871 1066.34 695.545 1168.37 881.414 1137.72C963.636 1124.16 1170.8 974.86 1171.95 932.912" stroke="url(#paint0_linear_14_36)" stroke-width="2"/>
<path d="M-148.789 749.082C256.838 651.492 435.765 712.566 448.243 918.686C460.721 1124.81 659.394 1226.84 845.264 1196.19C927.486 1182.63 1134.65 1033.33 1135.8 991.381" stroke="url(#paint1_linear_14_36)" stroke-width="2"/>
<path d="M-123.751 707.494C281.876 609.903 460.803 670.978 473.281 877.097C485.759 1083.22 684.433 1185.25 870.302 1154.6C952.524 1141.04 1159.68 991.741 1160.84 949.793" stroke="url(#paint2_linear_14_36)" stroke-width="2"/>
<path d="M-159.901 765.964C245.726 668.373 424.653 729.447 437.131 935.567C449.609 1141.69 648.283 1243.72 834.152 1213.07C916.374 1199.51 1123.53 1050.21 1124.69 1008.26" stroke="url(#paint3_linear_14_36)" stroke-width="2"/>
<path d="M-168.954 778.51C236.673 680.919 415.6 741.994 428.078 948.114C440.556 1154.23 639.229 1256.27 825.098 1225.62C907.321 1212.06 1114.48 1062.76 1115.63 1020.81" stroke="url(#paint4_linear_14_36)" stroke-width="2"/>
<path d="M-141.858 732.587C263.769 634.996 442.696 696.071 455.174 902.191C467.652 1108.31 666.326 1210.34 852.195 1179.69C934.417 1166.14 1141.58 1016.83 1142.73 974.886" stroke="url(#paint5_linear_14_36)" stroke-width="2"/>
<path d="M-178.008 791.057C227.619 693.466 406.546 754.54 419.024 960.66C431.502 1166.78 630.176 1268.81 816.045 1238.16C898.267 1224.61 1105.43 1075.3 1106.58 1033.36" stroke="url(#paint6_linear_14_36)" stroke-width="2"/>
<path d="M-188.724 805.409C216.903 707.818 395.83 768.893 408.308 975.012C420.786 1181.13 619.46 1283.17 805.329 1252.52C887.551 1238.96 1094.71 1089.66 1095.86 1047.71" stroke="url(#paint7_linear_14_36)" stroke-width="2"/>
<path d="M-224.874 863.879C180.753 766.288 359.68 827.362 372.158 1033.48C384.636 1239.6 583.31 1341.63 769.179 1310.99C851.401 1297.43 1058.56 1148.13 1059.71 1106.18" stroke="url(#paint8_linear_14_36)" stroke-width="2"/>
<path d="M-199.835 822.29C205.792 724.699 384.719 785.774 397.197 991.894C409.674 1198.01 608.348 1300.05 794.217 1269.4C876.44 1255.84 1083.6 1106.54 1084.75 1064.59" stroke="url(#paint9_linear_14_36)" stroke-width="2"/>
<path d="M-235.986 880.76C169.641 783.169 348.568 844.243 361.046 1050.36C373.524 1256.48 572.198 1358.52 758.067 1327.87C840.289 1314.31 1047.45 1165.01 1048.6 1123.06" stroke="url(#paint10_linear_14_36)" stroke-width="2"/>
<path d="M-208.889 834.837C196.738 737.246 375.665 798.32 388.143 1004.44C400.621 1210.56 599.295 1312.59 785.164 1281.94C867.386 1268.39 1074.55 1119.08 1075.7 1077.14" stroke="url(#paint11_linear_14_36)" stroke-width="2"/>
<path d="M-245.039 893.306C160.588 795.716 339.515 856.79 351.993 1062.91C364.471 1269.03 563.145 1371.06 749.014 1340.41C831.236 1326.86 1038.4 1177.55 1039.55 1135.6" stroke="url(#paint12_linear_14_36)" stroke-width="2"/>
<path d="M-217.942 847.383C187.685 749.792 366.612 810.867 379.09 1016.99C391.567 1223.11 590.241 1325.14 776.11 1294.49C858.333 1280.93 1065.49 1131.63 1066.64 1089.68" stroke="url(#paint13_linear_14_36)" stroke-width="2"/>
<path d="M-254.093 905.853C151.534 808.262 330.461 869.336 342.939 1075.46C355.417 1281.58 554.091 1383.61 739.96 1352.96C822.182 1339.4 1029.34 1190.1 1030.49 1148.15" stroke="url(#paint14_linear_14_36)" stroke-width="2"/>
<path d="M1729 509.5C1729 774.07 1520.8 984 1269.5 984C1018.2 984 810 774.07 810 509.5C810 244.93 1018.2 35 1269.5 35C1520.8 35 1729 244.93 1729 509.5Z" stroke="url(#paint15_linear_14_36)" stroke-opacity="0.16" stroke-width="200"/>
<g filter="url(#filter0_f_14_36)">
<ellipse cx="420.5" cy="172.5" rx="59.5" ry="58.5" fill="#D9D9D9" fill-opacity="0.26"/>
</g>
<g filter="url(#filter1_f_14_36)">
<ellipse cx="20.5" cy="183.5" rx="59.5" ry="58.5" fill="#D9D9D9" fill-opacity="0.26"/>
</g>
<g filter="url(#filter2_f_14_36)">
<ellipse cx="480" cy="125.5" rx="30" ry="29.5" fill="#D9D9D9" fill-opacity="0.4"/>
</g>
</g>
<defs>
<filter id="filter0_f_14_36" x="351" y="104" width="139" height="137" filterUnits="userSpaceOnUse" color-interpolation-filters="sRGB">
<feFlood flood-opacity="0" result="BackgroundImageFix"/>
<feBlend mode="normal" in="SourceGraphic" in2="BackgroundImageFix" result="shape"/>
<feGaussianBlur stdDeviation="5" result="effect1_foregroundBlur_14_36"/>
</filter>
<filter id="filter1_f_14_36" x="-49" y="115" width="139" height="137" filterUnits="userSpaceOnUse" color-interpolation-filters="sRGB">
<feFlood flood-opacity="0" result="BackgroundImageFix"/>
<feBlend mode="normal" in="SourceGraphic" in2="BackgroundImageFix" result="shape"/>
<feGaussianBlur stdDeviation="5" result="effect1_foregroundBlur_14_36"/>
</filter>
<filter id="filter2_f_14_36" x="440" y="86" width="80" height="79" filterUnits="userSpaceOnUse" color-interpolation-filters="sRGB">
<feFlood flood-opacity="0" result="BackgroundImageFix"/>
<feBlend mode="normal" in="SourceGraphic" in2="BackgroundImageFix" result="shape"/>
<feGaussianBlur stdDeviation="5" result="effect1_foregroundBlur_14_36"/>
</filter>
<linearGradient id="paint0_linear_14_36" x1="414.691" y1="597.821" x2="513.716" y2="1198.35" gradientUnits="userSpaceOnUse">
<stop offset="0.0104167" stop-color="#D8A43E" stop-opacity="0.16"/>
<stop offset="0.213542" stop-color="#AF8D44" stop-opacity="0.52"/>
</linearGradient>
<linearGradient id="paint1_linear_14_36" x1="378.541" y1="656.291" x2="477.566" y2="1256.82" gradientUnits="userSpaceOnUse">
<stop offset="0.0104167" stop-color="#D8A43E" stop-opacity="0.16"/>
<stop offset="0.213542" stop-color="#AF8D44" stop-opacity="0.52"/>
</linearGradient>
<linearGradient id="paint2_linear_14_36" x1="403.579" y1="614.702" x2="502.604" y2="1215.23" gradientUnits="userSpaceOnUse">
<stop offset="0.0104167" stop-color="#D8A43E" stop-opacity="0.16"/>
<stop offset="0.213542" stop-color="#AF8D44" stop-opacity="0.52"/>
</linearGradient>
<linearGradient id="paint3_linear_14_36" x1="367.429" y1="673.172" x2="466.454" y2="1273.7" gradientUnits="userSpaceOnUse">
<stop offset="0.0104167" stop-color="#D8A43E" stop-opacity="0.16"/>
<stop offset="0.213542" stop-color="#AF8D44" stop-opacity="0.52"/>
</linearGradient>
<linearGradient id="paint4_linear_14_36" x1="358.376" y1="685.718" x2="457.4" y2="1286.25" gradientUnits="userSpaceOnUse">
<stop offset="0.0104167" stop-color="#D8A43E" stop-opacity="0.16"/>
<stop offset="0.213542" stop-color="#AF8D44" stop-opacity="0.52"/>
</linearGradient>
<linearGradient id="paint5_linear_14_36" x1="385.472" y1="639.795" x2="484.497" y2="1240.33" gradientUnits="userSpaceOnUse">
<stop offset="0.0104167" stop-color="#D8A43E" stop-opacity="0.16"/>
<stop offset="0.213542" stop-color="#AF8D44" stop-opacity="0.52"/>
</linearGradient>
<linearGradient id="paint6_linear_14_36" x1="349.322" y1="698.265" x2="448.347" y2="1298.8" gradientUnits="userSpaceOnUse">
<stop offset="0.0104167" stop-color="#D8A43E" stop-opacity="0.16"/>
<stop offset="0.213542" stop-color="#AF8D44" stop-opacity="0.52"/>
</linearGradient>
<linearGradient id="paint7_linear_14_36" x1="338.606" y1="712.617" x2="437.631" y2="1313.15" gradientUnits="userSpaceOnUse">
<stop offset="0.0104167" stop-color="#D8A43E" stop-opacity="0.16"/>
<stop offset="0.213542" stop-color="#AF8D44" stop-opacity="0.52"/>
</linearGradient>
<linearGradient id="paint8_linear_14_36" x1="302.456" y1="771.087" x2="401.481" y2="1371.62" gradientUnits="userSpaceOnUse">
<stop offset="0.0104167" stop-color="#D8A43E" stop-opacity="0.16"/>
<stop offset="0.213542" stop-color="#AF8D44" stop-opacity="0.52"/>
</linearGradient>
<linearGradient id="paint9_linear_14_36" x1="327.495" y1="729.498" x2="426.519" y2="1330.03" gradientUnits="userSpaceOnUse">
<stop offset="0.0104167" stop-color="#D8A43E" stop-opacity="0.16"/>
<stop offset="0.213542" stop-color="#AF8D44" stop-opacity="0.52"/>
</linearGradient>
<linearGradient id="paint10_linear_14_36" x1="291.344" y1="787.968" x2="390.369" y2="1388.5" gradientUnits="userSpaceOnUse">
<stop offset="0.0104167" stop-color="#D8A43E" stop-opacity="0.16"/>
<stop offset="0.213542" stop-color="#AF8D44" stop-opacity="0.52"/>
</linearGradient>
<linearGradient id="paint11_linear_14_36" x1="318.441" y1="742.045" x2="417.466" y2="1342.58" gradientUnits="userSpaceOnUse">
<stop offset="0.0104167" stop-color="#D8A43E" stop-opacity="0.16"/>
<stop offset="0.213542" stop-color="#AF8D44" stop-opacity="0.52"/>
</linearGradient>
<linearGradient id="paint12_linear_14_36" x1="282.291" y1="800.514" x2="381.316" y2="1401.05" gradientUnits="userSpaceOnUse">
<stop offset="0.0104167" stop-color="#D8A43E" stop-opacity="0.16"/>
<stop offset="0.213542" stop-color="#AF8D44" stop-opacity="0.52"/>
</linearGradient>
<linearGradient id="paint13_linear_14_36" x1="309.388" y1="754.591" x2="408.412" y2="1355.12" gradientUnits="userSpaceOnUse">
<stop offset="0.0104167" stop-color="#D8A43E" stop-opacity="0.16"/>
<stop offset="0.213542" stop-color="#AF8D44" stop-opacity="0.52"/>
</linearGradient>
<linearGradient id="paint14_linear_14_36" x1="273.237" y1="813.061" x2="372.262" y2="1413.59" gradientUnits="userSpaceOnUse">
<stop offset="0.0104167" stop-color="#D8A43E" stop-opacity="0.16"/>
<stop offset="0.213542" stop-color="#AF8D44" stop-opacity="0.52"/>
</linearGradient>
<linearGradient id="paint15_linear_14_36" x1="1269.5" y1="-65" x2="1243.5" y2="906.5" gradientUnits="userSpaceOnUse">
<stop stop-color="#AF8D44"/>
<stop offset="1" stop-color="#AF8D44" stop-opacity="0"/>
</linearGradient>
<clipPath id="clip0_14_36">
<rect width="1440" height="874" fill="white"/>
</clipPath>
</defs>
</svg>
