<svg width="65" height="65" viewBox="0 0 65 65" fill="none" xmlns="http://www.w3.org/2000/svg">
<g id="&#240;&#159;&#166;&#134; icon &#34;circle instagram&#34;">
<path id="Vector" d="M31.9197 39.3984C30.9431 39.3984 30.0307 39.2185 29.1826 38.8587C28.3345 38.4989 27.5892 37.9978 26.9467 37.3553C26.3042 36.7128 25.803 35.9546 25.4432 35.0808C25.0834 34.207 24.9035 33.2818 24.9035 32.3052C24.9035 31.3286 25.0834 30.4162 25.4432 29.5681C25.803 28.72 26.3042 27.9747 26.9467 27.3322C27.5892 26.6897 28.3345 26.1885 29.1826 25.8287C30.0307 25.4689 30.9431 25.289 31.9197 25.289C33.8729 25.289 35.5306 25.9701 36.8927 27.3322C38.2548 28.6943 38.9358 30.352 38.9358 32.3052C38.9358 33.2818 38.7559 34.207 38.3961 35.0808C38.0363 35.9546 37.5352 36.7128 36.8927 37.3553C36.2502 37.9978 35.5049 38.4989 34.6567 38.8587C33.8086 39.2185 32.8963 39.3984 31.9197 39.3984ZM43.1764 32.3052C43.1764 31.8426 43.1507 31.3671 43.0993 30.8788C43.0479 30.3905 42.9708 29.9408 42.868 29.5296H46.0291V45.0268C46.0291 45.438 45.9006 45.7721 45.6436 46.0291C45.3866 46.2861 45.0525 46.4146 44.6413 46.4146H19.1981C18.7869 46.4146 18.4528 46.2861 18.1958 46.0291C17.9388 45.7721 17.8103 45.438 17.8103 45.0268V29.5296H20.9714C20.8686 29.9408 20.7915 30.3905 20.7401 30.8788C20.6887 31.3671 20.663 31.8426 20.663 32.3052C20.663 33.8472 20.9585 35.3121 21.5496 36.6999C22.1407 38.0877 22.9374 39.2956 23.9398 40.3236C24.9421 41.3517 26.1371 42.1612 27.5249 42.7523C28.9127 43.3434 30.3777 43.639 31.9197 43.639C33.4617 43.639 34.9266 43.3434 36.3144 42.7523C37.7022 42.1612 38.8973 41.3517 39.8996 40.3236C40.9019 39.2956 41.6986 38.0877 42.2897 36.6999C42.8808 35.3121 43.1764 33.8472 43.1764 32.3052ZM32.2281 0C36.6999 0 40.889 0.848107 44.7955 2.54432C48.7019 4.24054 52.12 6.54071 55.0499 9.44483C57.9797 12.349 60.2927 15.7542 61.9889 19.6607C63.6851 23.5671 64.5332 27.7562 64.5332 32.2281C64.5332 36.6999 63.6851 40.889 61.9889 44.7955C60.2927 48.7019 57.9797 52.12 55.0499 55.0499C52.12 57.9797 48.7019 60.2927 44.7955 61.9889C40.889 63.6851 36.6999 64.5332 32.2281 64.5332C27.7562 64.5332 23.5671 63.6851 19.6607 61.9889C15.7542 60.2927 12.349 57.9797 9.44483 55.0499C6.54071 52.12 4.24054 48.7019 2.54432 44.7955C0.848107 40.889 0 36.6999 0 32.2281C0 27.7562 0.848107 23.5671 2.54432 19.6607C4.24054 15.7542 6.54071 12.349 9.44483 9.44483C12.349 6.54071 15.7542 4.24054 19.6607 2.54432C23.5671 0.848107 27.7562 0 32.2281 0ZM50.2696 18.1958C50.2696 17.0135 49.8584 16.0112 49.036 15.1888C48.2136 14.3664 47.2113 13.9552 46.0291 13.9552H17.8103C16.628 13.9552 15.6257 14.3664 14.8033 15.1888C13.9809 16.0112 13.5697 17.0135 13.5697 18.1958V46.4146C13.5697 47.5968 13.9809 48.5991 14.8033 49.4215C15.6257 50.2439 16.628 50.6551 17.8103 50.6551H46.0291C47.2113 50.6551 48.2136 50.2439 49.036 49.4215C49.8584 48.5991 50.2696 47.5968 50.2696 46.4146V18.1958ZM44.6413 18.1958C45.0525 18.1958 45.3866 18.3371 45.6436 18.6198C45.9006 18.9025 46.0291 19.2495 46.0291 19.6607V23.9012C46.0291 24.3124 45.9006 24.6465 45.6436 24.9035C45.3866 25.1605 45.0525 25.289 44.6413 25.289H40.4007C39.9895 25.289 39.6426 25.1605 39.3599 24.9035C39.0772 24.6465 38.9358 24.3124 38.9358 23.9012V19.6607C38.9358 19.2495 39.0772 18.9025 39.3599 18.6198C39.6426 18.3371 39.9895 18.1958 40.4007 18.1958H44.6413Z" fill="white"/>
</g>
</svg>
