<svg width="65" height="65" viewBox="0 0 65 65" fill="none" xmlns="http://www.w3.org/2000/svg">
<g id="&#240;&#159;&#166;&#134; icon &#34;circle soundcloud&#34;">
<path id="Vector" d="M32.3052 0C36.777 0 40.9661 0.848107 44.8726 2.54432C48.779 4.24054 52.1843 6.54071 55.0884 9.44483C57.9925 12.349 60.2927 15.7542 61.9889 19.6607C63.6851 23.5671 64.5332 27.7562 64.5332 32.2281C64.5332 36.6999 63.6851 40.889 61.9889 44.7955C60.2927 48.7019 57.9925 52.12 55.0884 55.0499C52.1843 57.9797 48.779 60.2927 44.8726 61.9889C40.9661 63.6851 36.777 64.5332 32.3052 64.5332C27.8333 64.5332 23.6442 63.6851 19.7378 61.9889C15.8313 60.2927 12.4132 57.9797 9.48338 55.0499C6.55356 52.12 4.24054 48.7019 2.54432 44.7955C0.848107 40.889 0 36.6999 0 32.2281C0 27.7562 0.848107 23.5671 2.54432 19.6607C4.24054 15.7542 6.55356 12.349 9.48338 9.44483C12.4132 6.54071 15.8313 4.24054 19.7378 2.54432C23.6442 0.848107 27.8333 0 32.3052 0ZM13.8781 32.8449C12.7987 33.7701 12.259 34.9009 12.259 36.2373C12.259 37.6251 12.7987 38.7302 13.8781 39.5526V32.8449ZM17.1934 31.8426H16.8079C16.5509 31.8426 16.3325 31.8554 16.1526 31.8811C15.9727 31.9068 15.7542 31.9454 15.4972 31.9968V40.4778C15.7542 40.5292 15.9727 40.5678 16.1526 40.5935C16.3325 40.6192 16.5509 40.632 16.8079 40.632H17.1934V31.8426ZM20.5859 29.5296C19.9177 30.352 19.4551 31.3543 19.1981 32.5365C19.1467 32.4851 19.0953 32.4465 19.0439 32.4208C18.9925 32.3951 18.9411 32.3566 18.8897 32.3052V40.632H20.5859V29.5296ZM23.9012 27.1394C23.5928 27.2422 23.2972 27.3707 23.0145 27.5249C22.7318 27.6791 22.462 27.8333 22.205 27.9875V40.632H23.9012V27.1394ZM27.2936 26.9081C27.088 26.8567 26.9081 26.8182 26.7539 26.7925C26.5997 26.7668 26.4198 26.7539 26.2142 26.7539C26.1114 26.7539 26.0086 26.7668 25.9058 26.7925C25.803 26.8182 25.7002 26.831 25.5974 26.831V40.632H27.2936V26.9081ZM30.609 26.7539C30.5062 26.9595 30.3777 27.1394 30.2235 27.2936C30.0693 27.4478 29.9408 27.602 29.838 27.7562C29.2725 27.4478 28.7071 27.2165 28.1417 27.0623V40.632H30.609V26.7539ZM47.4169 40.632C49.0617 40.5292 50.2825 40.0152 51.0792 39.09C51.8759 38.1648 52.2742 37.0597 52.2742 35.7747C52.2742 34.4383 51.8245 33.3075 50.925 32.3823C50.0255 31.4571 48.8818 30.9945 47.494 30.9945C46.9286 30.9945 46.3118 31.123 45.6436 31.38C45.3866 29.2725 44.4614 27.4864 42.868 26.0215C41.2746 24.5566 39.3727 23.8241 37.1625 23.8241C36.0317 23.8241 34.9908 24.0169 34.0399 24.4024C33.089 24.7879 32.2281 25.3147 31.4571 25.9829V40.632H47.4169Z" fill="white"/>
</g>
</svg>
