<svg width="65" height="65" viewBox="0 0 65 65" fill="none" xmlns="http://www.w3.org/2000/svg">
<g id="&#240;&#159;&#166;&#134; icon &#34;circle twitterbird&#34;">
<path id="Vector" d="M32.2281 0C36.6999 0 40.889 0.848107 44.7955 2.54432C48.7019 4.24054 52.12 6.54071 55.0499 9.44483C57.9797 12.349 60.2927 15.7542 61.9889 19.6607C63.6851 23.5671 64.5332 27.7562 64.5332 32.2281C64.5332 36.6999 63.6851 40.889 61.9889 44.7955C60.2927 48.7019 57.9797 52.12 55.0499 55.0499C52.12 57.9797 48.7019 60.2927 44.7955 61.9889C40.889 63.6851 36.6999 64.5332 32.2281 64.5332C27.7562 64.5332 23.5671 63.6851 19.6607 61.9889C15.7542 60.2927 12.349 57.9797 9.44483 55.0499C6.54071 52.12 4.24054 48.7019 2.54432 44.7955C0.848107 40.889 0 36.6999 0 32.2281C0 27.7562 0.848107 23.5671 2.54432 19.6607C4.24054 15.7542 6.54071 12.349 9.44483 9.44483C12.349 6.54071 15.7542 4.24054 19.6607 2.54432C23.5671 0.848107 27.7562 0 32.2281 0ZM48.265 25.289C49.7556 24.1582 51.0663 22.7961 52.1971 21.2027C51.4775 21.5111 50.7451 21.7681 49.9998 21.9737C49.2545 22.1793 48.4706 22.3335 47.6482 22.4363C48.4706 21.9223 49.1902 21.2926 49.807 20.5473C50.4238 19.802 50.8607 18.9925 51.1177 18.1187C50.3467 18.5299 49.55 18.9025 48.7276 19.2366C47.9052 19.5707 47.0571 19.8149 46.1833 19.9691C45.4637 19.2495 44.6156 18.6584 43.639 18.1958C42.6624 17.7332 41.583 17.5018 40.4007 17.5018C39.3213 17.5018 38.3062 17.7075 37.3553 18.1187C36.4044 18.5299 35.582 19.0953 34.888 19.8149C34.1941 20.5345 33.6416 21.3697 33.2304 22.3206C32.8192 23.2715 32.6136 24.2867 32.6136 25.3661C32.6136 25.6745 32.6264 25.9829 32.6521 26.2913C32.6778 26.5997 32.7164 26.8824 32.7678 27.1394C29.5296 26.9852 26.5226 26.1885 23.747 24.7493C20.9714 23.3101 18.607 21.3826 16.6537 18.9668C15.9341 20.149 15.5743 21.4597 15.5743 22.8989C15.5743 24.2353 15.8956 25.4818 16.5381 26.6383C17.1806 27.7948 18.0159 28.7328 19.0439 29.4525C17.7075 29.3496 16.5252 29.0155 15.4972 28.4501V28.5272C15.4972 30.4805 16.1012 32.1638 17.3091 33.5773C18.517 34.9908 20.0205 35.8775 21.8195 36.2373C21.4597 36.3401 21.1127 36.4172 20.7786 36.4686C20.4445 36.52 20.0976 36.5457 19.7378 36.5457C19.4808 36.5457 19.2366 36.5329 19.0053 36.5072C18.774 36.4815 18.5299 36.4429 18.2729 36.3915C18.7869 37.9335 19.6992 39.2185 21.0099 40.2465C22.3206 41.2746 23.8498 41.7886 25.5974 41.7886C24.261 42.868 22.7575 43.7032 21.087 44.2943C19.4165 44.8854 17.6818 45.181 15.8827 45.181C15.5229 45.181 15.1888 45.1681 14.8804 45.1424C14.572 45.1167 14.2636 45.0782 13.9552 45.0268C15.7028 46.1576 17.5918 47.0314 19.6221 47.6482C21.6524 48.265 23.7727 48.5734 25.9829 48.5734C29.581 48.5734 32.7678 47.8924 35.5434 46.5302C38.319 45.1681 40.6449 43.4205 42.521 41.2874C44.3971 39.1543 45.8235 36.7642 46.8001 34.117C47.7767 31.4699 48.265 28.8613 48.265 26.2913V25.289Z" fill="white"/>
</g>
</svg>
